<?xml version="1.0" encoding="UTF-8"?>
<svg width="512px" height="512px" viewBox="0 0 512 512" version="1.1" xmlns="http://www.w3.org/2000/svg" xmlns:xlink="http://www.w3.org/1999/xlink">
    <title>ban</title>
    <g id="ban" stroke="none" stroke-width="1" fill="none" fill-rule="evenodd">
        <path d="M256,46 C371.979797,46 466,140.020203 466,256 C466,371.979797 371.979797,466 256,466 C140.020203,466 46,371.979797 46,256 C46,140.020203 140.020203,46 256,46 Z M400.778186,187.799173 L138.561776,364.666934 C167.787931,396.23697 209.586014,416 256,416 C344.36556,416 416,344.36556 416,256 C416,231.606393 410.541066,208.487788 400.778186,187.799173 Z M256,96 C167.63444,96 96,167.63444 96,256 C96,279.974558 101.272991,302.717543 110.722491,323.132474 L372.633793,146.470481 C343.447703,115.403455 301.989812,96 256,96 Z" id="Combined-Shape" fill="#FF3B3B"></path>
    </g>
</svg>