<?xml version="1.0" encoding="UTF-8"?>
<svg width="512px" height="512px" viewBox="0 0 512 512" version="1.1" xmlns="http://www.w3.org/2000/svg" xmlns:xlink="http://www.w3.org/1999/xlink">
    <title>bar-chart</title>
    <g id="bar-chart" stroke="none" stroke-width="1" fill="none" fill-rule="evenodd">
        <path d="M318.880159,87.1349929 L318.880159,87.5119929 L341.127596,87.5129794 L341.127159,168.134993 L458.880159,168.134993 L458.880159,168.511993 L466.127596,168.512979 L466.127596,401.512979 L465.880159,401.511993 L465.880159,451.134993 L45.880159,451.134993 L45.880159,401.134993 L46.127159,401.134993 L46.127159,250.133993 L45.880159,250.134993 L45.880159,200.134993 L166.127159,200.133993 L166.127596,87.5129794 L178.880159,87.5119929 L178.880159,87.1349929 L318.880159,87.1349929 Z M96.127159,401.134993 L166.127159,401.134993 L166.127159,250.133993 L96.127159,250.133993 L96.127159,401.134993 Z M416.127159,218.134993 L341.127159,218.134993 L341.127159,401.134993 L416.127159,401.134993 L416.127159,218.134993 Z M291.127159,137.134993 L216.127159,137.134993 L216.127159,401.134993 L291.127159,401.134993 L291.127159,137.134993 Z" id="Combined-Shape" fill="#FF3B3B"></path>
    </g>
</svg>