<?xml version="1.0" encoding="UTF-8"?>
<svg width="512px" height="512px" viewBox="0 0 512 512" version="1.1" xmlns="http://www.w3.org/2000/svg" xmlns:xlink="http://www.w3.org/1999/xlink">
    <title>multiple</title>
    <g id="multiple" stroke="none" stroke-width="1" fill="none" fill-rule="evenodd">
        <path d="M356.880159,43.1349929 L356.880159,68.5119929 L357.127596,68.5129794 L357.127159,131.134993 L442.880159,131.134993 L442.880159,156.511993 L443.127596,156.512979 L443.127596,443.512979 L442.880159,443.511993 L442.880159,468.134993 L154.880159,468.134993 L154.880159,418.134993 L155.127159,418.134993 L155.127159,380.134993 L68.880159,380.134993 L68.880159,330.134993 L69.127159,330.134993 L69.127159,93.1339929 L68.880159,93.1349929 L68.880159,43.1349929 L356.880159,43.1349929 Z M357.127159,181.134993 L357.127596,355.512979 L356.880159,355.511993 L356.880159,380.134993 L205.127159,380.134993 L205.127159,418.134993 L393.127159,418.134993 L393.127159,181.134993 L357.127159,181.134993 Z M119.127159,93.1339929 L119.127159,330.134993 L155.127159,330.134993 L155.127159,181.133993 L154.880159,181.134993 L154.880159,131.134993 L307.127159,131.134993 L307.127159,93.1349929 L119.127159,93.1339929 Z M205.127159,181.133993 L205.127159,330.134993 L307.127159,330.134993 L307.127159,181.134993 L205.127159,181.133993 Z" id="Combined-Shape" fill="#FF3B3B"></path>
    </g>
</svg>