<?xml version="1.0" encoding="UTF-8"?>
<svg width="512px" height="512px" viewBox="0 0 512 512" version="1.1" xmlns="http://www.w3.org/2000/svg" xmlns:xlink="http://www.w3.org/1999/xlink">
    <title>pie-chart</title>
    <g id="pie-chart" stroke="none" stroke-width="1" fill="none" fill-rule="evenodd">
        <path d="M256,46 C371.979797,46 466,140.020203 466,256 C466,371.979797 371.979797,466 256,466 C140.020203,466 46,371.979797 46,256 C46,140.020203 140.020203,46 256,46 Z M246.729,290.285 L131.669467,356.715442 C161.004142,392.883622 205.802511,416 256,416 C276.164409,416 295.457594,412.269846 313.227167,405.461925 L246.729,290.285 Z M280.882134,97.9232214 L280.88,249.436 L356.536675,380.475312 C392.807434,351.143372 416,306.280143 416,256 C416,176.098052 357.430631,109.875712 280.882134,97.9232214 Z M96,256 C96,276.245943 99.7603806,295.613601 106.620808,313.442642 L213.58,251.689 L121.714547,168.974403 C105.448141,194.022953 96,223.908111 96,256 Z M155.140093,131.786777 L230.88,199.984 L230.878952,97.9607115 C202.450693,102.443701 176.510376,114.413087 155.140093,131.786777 Z" id="Combined-Shape" fill="#FF3B3B"></path>
    </g>
</svg>