<?xml version="1.0" encoding="UTF-8"?>
<svg width="512px" height="512px" viewBox="0 0 512 512" version="1.1" xmlns="http://www.w3.org/2000/svg" xmlns:xlink="http://www.w3.org/1999/xlink">
    <title>reload</title>
    <g id="reload" stroke="none" stroke-width="1" fill="none" fill-rule="evenodd">
        <path d="M391.337158,247 L483.26104,338.923882 L447.905701,374.279221 L416.127159,342.502 L416.127596,390.512979 L415.880159,390.512 L415.880159,440.134993 L94.880159,440.134993 L94.880159,390.134993 L95.127159,390.134 L95.1275965,284.512979 L145.127596,284.512979 L145.127159,390.134 L366.127159,390.134 L366.127159,342.33 L334.175144,374.283131 L298.819805,338.927792 L390.743687,247.00391 L391.038805,247.299 L391.337158,247 Z M416.275269,70.9695533 L416.275269,120.969553 L416.028269,120.970546 L416.027831,226.591567 L366.027831,226.591567 L366.028269,120.970546 L145.028269,120.970546 L145.028269,168.774546 L176.980283,136.821415 L212.335622,172.176755 L120.411741,264.100636 L120.116622,263.805546 L119.818269,264.104546 L27.8943879,172.180665 L63.249727,136.825326 L95.0282687,168.602546 L95.0278312,120.591567 L95.2752687,120.592546 L95.2752687,70.9695533 L416.275269,70.9695533 Z" id="Combined-Shape" fill="#FF3B3B"></path>
    </g>
</svg>