<?xml version="1.0" encoding="UTF-8"?>
<svg width="512px" height="512px" viewBox="0 0 512 512" version="1.1" xmlns="http://www.w3.org/2000/svg" xmlns:xlink="http://www.w3.org/1999/xlink">
    <title>reload</title>
    <g id="reload" stroke="none" stroke-width="1" fill="none" fill-rule="evenodd">
        <path d="M370.337158,187 L484.888457,301.551299 L449.533118,336.906638 L395.127159,282.501 L395.127596,398.512979 L394.880159,398.512 L394.880159,448.134993 L116.880159,448.134993 L116.880159,398.134993 L117.127159,398.134 L117.127596,343.512979 L167.127596,343.512979 L167.127159,398.134 L345.127159,398.134 L345.127159,282.331 L290.547727,336.910548 L255.192388,301.555209 L369.743687,187.00391 L370.038388,187.298 L370.337158,187 Z" id="Combined-Shape" fill="#FF3B3B"></path>
        <path d="M281.52985,63.4397133 L396.081149,177.991012 L360.72581,213.346351 L306.319851,158.940713 L306.320288,274.952693 L306.072851,274.951713 L306.072851,324.574706 L28.0728509,324.574706 L28.0728509,274.574706 L28.3198509,274.573713 L28.3202884,219.952693 L78.3202884,219.952693 L78.3198509,274.573713 L256.319851,274.573713 L256.319851,158.770713 L201.740419,213.350261 L166.38508,177.994922 L280.936379,63.4436235 L281.23108,63.7377133 L281.52985,63.4397133 Z" id="Combined-Shape" fill="#FF3B3B" transform="translate(212.077000, 194.007210) rotate(-180.000000) translate(-212.077000, -194.007210) "></path>
    </g>
</svg>