<?xml version="1.0" encoding="UTF-8"?>
<svg width="512px" height="512px" viewBox="0 0 512 512" version="1.1" xmlns="http://www.w3.org/2000/svg" xmlns:xlink="http://www.w3.org/1999/xlink">
    <title>reload</title>
    <g id="reload" stroke="none" stroke-width="1" fill="none" fill-rule="evenodd">
        <path d="M370.337158,187 L484.888457,301.551299 L449.533118,336.906638 L395.127159,282.501 L395.127596,398.512979 L394.880159,398.512 L394.880159,448.134993 L116.880159,448.134993 L116.880159,398.134993 L117.127159,398.134 L117.127596,343.512979 L167.127596,343.512979 L167.127159,398.134 L345.127159,398.134 L345.127159,282.331 L290.547727,336.910548 L255.192388,301.555209 L369.743687,187.00391 L370.038388,187.298 L370.337158,187 Z M396.081149,63.4397133 L396.081149,113.439713 L395.834149,113.440706 L395.833711,168.061727 L345.833711,168.061727 L345.834149,113.440706 L167.834149,113.440706 L167.834149,229.243706 L222.41358,174.664158 L257.768919,210.019498 L143.217621,324.570796 L142.922919,324.276706 L142.624149,324.574706 L28.0728509,210.023408 L63.4281899,174.668069 L117.834149,229.073706 L117.833711,113.061727 L118.081149,113.062706 L118.081149,63.4397133 L396.081149,63.4397133 Z" id="Combined-Shape" fill="#FF3B3B"></path>
    </g>
</svg>