<?xml version="1.0" encoding="UTF-8"?>
<svg width="512px" height="512px" viewBox="0 0 512 512" version="1.1" xmlns="http://www.w3.org/2000/svg" xmlns:xlink="http://www.w3.org/1999/xlink">
    <title>search</title>
    <g id="search" stroke="none" stroke-width="1" fill="none" fill-rule="evenodd">
        <path d="M208,42 C299.126984,42 373,115.873016 373,207 C373,243.684877 361.02802,277.573548 340.777941,304.972134 L469.578354,433.772078 L434.223015,469.127417 L305.339404,340.24327 C278.052591,360.211296 244.402995,372 208,372 C116.873016,372 43,298.126984 43,207 C43,115.873016 116.873016,42 208,42 Z M208,92 C144.487254,92 93,143.487254 93,207 C93,270.512746 144.487254,322 208,322 C271.512746,322 323,270.512746 323,207 C323,143.487254 271.512746,92 208,92 Z" id="Combined-Shape" fill="#FF3B3B"></path>
    </g>
</svg>